<svg width="1600" height="900" viewBox="0 0 1600 900" fill="none" xmlns="http://www.w3.org/2000/svg">
  <defs>
    <radialGradient id="depthGlowA" cx="0" cy="0" r="1" gradientUnits="userSpaceOnUse" gradientTransform="translate(1160 210) rotate(144) scale(760 560)">
      <stop stop-color="#BCD8E7" stop-opacity="0.14"/>
      <stop offset="1" stop-color="#BCD8E7" stop-opacity="0"/>
    </radialGradient>
    <radialGradient id="depthGlowB" cx="0" cy="0" r="1" gradientUnits="userSpaceOnUse" gradientTransform="translate(390 760) rotate(18) scale(700 300)">
      <stop stop-color="#8BB6CC" stop-opacity="0.11"/>
      <stop offset="1" stop-color="#8BB6CC" stop-opacity="0"/>
    </radialGradient>

    <pattern id="dashboardGridMinor" width="84" height="84" patternUnits="userSpaceOnUse">
      <path d="M84 0H0V84" stroke="#D8E8F2" stroke-opacity="0.09" stroke-width="1"/>
    </pattern>
    <pattern id="dashboardGridMajor" width="252" height="252" patternUnits="userSpaceOnUse">
      <path d="M252 0H0V252" stroke="#D8E8F2" stroke-opacity="0.12" stroke-width="1.1"/>
    </pattern>

    <linearGradient id="trendLineA" x1="190" y1="690" x2="1410" y2="560" gradientUnits="userSpaceOnUse">
      <stop stop-color="#C5DDEA" stop-opacity="0.14"/>
      <stop offset="1" stop-color="#C5DDEA" stop-opacity="0.09"/>
    </linearGradient>
    <linearGradient id="trendLineB" x1="240" y1="620" x2="1360" y2="500" gradientUnits="userSpaceOnUse">
      <stop stop-color="#B7D4E4" stop-opacity="0.13"/>
      <stop offset="1" stop-color="#B7D4E4" stop-opacity="0.08"/>
    </linearGradient>
    <linearGradient id="trendLineC" x1="250" y1="760" x2="1320" y2="640" gradientUnits="userSpaceOnUse">
      <stop stop-color="#A9CADC" stop-opacity="0.12"/>
      <stop offset="1" stop-color="#A9CADC" stop-opacity="0.07"/>
    </linearGradient>

    <filter id="lineSoftGlow" x="-10%" y="-20%" width="120%" height="140%">
      <feGaussianBlur stdDeviation="0.8" result="blur"/>
      <feMerge>
        <feMergeNode in="blur"/>
        <feMergeNode in="SourceGraphic"/>
      </feMerge>
    </filter>
  </defs>

  <rect width="1600" height="900" fill="url(#depthGlowA)"/>
  <rect width="1600" height="900" fill="url(#depthGlowB)"/>

  <rect width="1600" height="900" fill="url(#dashboardGridMinor)"/>
  <rect width="1600" height="900" fill="url(#dashboardGridMajor)"/>

  <g filter="url(#lineSoftGlow)">
    <path d="M190 690L360 670L520 700L700 640L860 662L1030 598L1190 622L1410 560" stroke="url(#trendLineA)" stroke-width="1.5" stroke-linecap="round" stroke-linejoin="round"/>
    <path d="M240 620L400 600L580 622L760 570L930 590L1110 532L1360 500" stroke="url(#trendLineB)" stroke-width="1.35" stroke-linecap="round" stroke-linejoin="round"/>
    <path d="M250 760L460 720L650 742L840 700L1040 722L1180 682L1320 640" stroke="url(#trendLineC)" stroke-width="1.2" stroke-linecap="round" stroke-linejoin="round"/>
  </g>

  <circle cx="400" cy="670" r="3.2" fill="#C9E0EC" fill-opacity="0.13"/>
  <circle cx="700" cy="640" r="3.2" fill="#C9E0EC" fill-opacity="0.13"/>
  <circle cx="1030" cy="598" r="3.2" fill="#C9E0EC" fill-opacity="0.13"/>
  <circle cx="1190" cy="622" r="3.2" fill="#C9E0EC" fill-opacity="0.13"/>

  <path d="M160 800C360 620 590 520 830 520C1060 520 1260 600 1440 760" stroke="#DDECF4" stroke-opacity="0.12" stroke-width="1.25"/>
  <path d="M220 700C410 560 620 485 860 485C1070 485 1240 545 1400 660" stroke="#DDECF4" stroke-opacity="0.1" stroke-width="1.1"/>
  <path d="M300 860C500 730 700 660 910 660C1090 660 1240 710 1370 810" stroke="#DDECF4" stroke-opacity="0.09" stroke-width="1"/>

  <circle cx="980" cy="320" r="150" stroke="#E4F0F7" stroke-opacity="0.12" stroke-width="1"/>
  <circle cx="980" cy="320" r="230" stroke="#E4F0F7" stroke-opacity="0.09" stroke-width="1"/>
  <circle cx="980" cy="320" r="310" stroke="#E4F0F7" stroke-opacity="0.07" stroke-width="1"/>
</svg>
