<svg width="520" height="360" viewBox="0 0 520 360" fill="none" xmlns="http://www.w3.org/2000/svg">
  <defs>
    <linearGradient id="cardStroke" x1="110" y1="70" x2="390" y2="290" gradientUnits="userSpaceOnUse">
      <stop stop-color="#1A4A63" stop-opacity="0.28"/>
      <stop offset="1" stop-color="#1A4A63" stop-opacity="0.12"/>
    </linearGradient>
    <linearGradient id="lineBlue" x1="150" y1="210" x2="360" y2="160" gradientUnits="userSpaceOnUse">
      <stop stop-color="#2E6785" stop-opacity="0.32"/>
      <stop offset="1" stop-color="#2E6785" stop-opacity="0.14"/>
    </linearGradient>
    <linearGradient id="lineRed" x1="158" y1="224" x2="354" y2="206" gradientUnits="userSpaceOnUse">
      <stop stop-color="#A01F35" stop-opacity="0.22"/>
      <stop offset="1" stop-color="#A01F35" stop-opacity="0.08"/>
    </linearGradient>
  </defs>

  <circle cx="382" cy="96" r="78" stroke="#1F526C" stroke-opacity="0.16" stroke-width="1"/>
  <circle cx="382" cy="96" r="118" stroke="#1F526C" stroke-opacity="0.1" stroke-width="1"/>

  <rect x="102" y="64" width="308" height="222" rx="14" stroke="url(#cardStroke)" stroke-width="1.4"/>
  <line x1="126" y1="106" x2="386" y2="106" stroke="#1C4B62" stroke-opacity="0.16" stroke-width="1.2"/>

  <rect x="126" y="126" width="68" height="124" rx="6" fill="#1F526C" fill-opacity="0.11"/>
  <rect x="205" y="154" width="68" height="96" rx="6" fill="#1F526C" fill-opacity="0.15"/>
  <rect x="284" y="142" width="68" height="108" rx="6" fill="#1F526C" fill-opacity="0.13"/>

  <path d="M150 216L198 198L242 208L292 180L358 170" stroke="url(#lineBlue)" stroke-width="2" stroke-linecap="round" stroke-linejoin="round"/>
  <path d="M158 224L202 216L248 222L296 212L354 206" stroke="url(#lineRed)" stroke-width="1.5" stroke-linecap="round" stroke-linejoin="round"/>

  <circle cx="198" cy="198" r="3.5" fill="#2E6785" fill-opacity="0.28"/>
  <circle cx="292" cy="180" r="3.5" fill="#2E6785" fill-opacity="0.28"/>
  <circle cx="358" cy="170" r="3.5" fill="#2E6785" fill-opacity="0.28"/>
</svg>
